<?xml version="1.0" encoding="utf-8"?>
<!-- Generator: Adobe Illustrator 20.1.0, SVG Export Plug-In . SVG Version: 6.00 Build 0)  -->
<svg version="1.1" id="レイヤー_1" xmlns="http://www.w3.org/2000/svg" xmlns:xlink="http://www.w3.org/1999/xlink" x="0px"
	 y="0px" viewBox="0 0 520.5 358.2" style="enable-background:new 0 0 520.5 358.2;" xml:space="preserve">
<style type="text/css">
	.st0{fill:#FEFEFE;}
	.st1{fill:#F2E53D;}
</style>
<path class="st0" d="M55,124c10.6-7.7,16.3-10.1,17-7.2c0,2.4-17,33.1-25.4,45.6c-8.4,12.5-16.3,16.8-33.8,14.9
	c-8.6-1.2-12.5-2.9-12-5.3c0.2-1,1.7-2.2,3.8-3.1c3.6-2.2,7.2-5.8,11.3-11.3C24.3,147,33.4,138.6,55,124 M23.1,52.5
	c3.4-0.2,16.3,0.5,20.4,1.7c2.2,0.7,3.8,1.9,5.5,3.1c6.5,8.4,5.5,20.2-1.9,23.5c-7.4,3.4-25.4,0.5-29.5-4.1
	c-2.2-2.2-3.1-5.5-3.6-10.1C14.5,57.5,19.8,52.7,23.1,52.5 M66.3,14.1c0,7.7-7.9,14.9-11,15.6c-3.1,1-18.7,0.2-24.2-4.6
	c-2.9-2.4-4.1-5.8-4.1-9.8c0-8.4,1-10.6,4.8-13.7c4.6-3.1,22.3-1.4,29.5,3.4C64.6,7.3,66.3,10.2,66.3,14.1 M207.9,70
	c-9.1,0-16.8,0.2-22.6,1.2l-8.2,1l-1.9,11.5c-3.1,18.5-11.8,37.4-24.2,50.6c-6.2,6.5-9.1,10.1-8.4,10.3l17.3,12
	c18.2,12.2,26.6,19.4,24.7,21.8c-1.7,2.9-18.7,1.9-19.9-1c-1.4-2.9-29.3-24.5-31.2-24.5c-1.2,0-2.2,0.7-3.1,2.2
	c-1.4,2.6-24.7,13.7-29.8,14.9c-4.8,1.4-12.5,0.2-15.8-0.7c-3.1-1-6-2.2-7.9-3.4c-2.2-1.2-2.9-2.9-2.2-4.1c0.2-1,2.4-1.4,6.2-2.2
	c7.4-1.2,24.5-11.3,28.8-16.1c2.4-2.4,3.1-3.8,2.4-4.8c-0.7-0.7-3.4-2.2-7.9-4.8c-11.5-5.8-19.2-10.6-22.1-14.4
	c-2.9-3.8-3.1-7.9-0.7-12.5c2.4-4.3,5-11.3,7.9-20.6l3.8-13.9L81,70.5c-8.2-1.2-13.2-2.4-15.8-3.4c-2.6-0.7-3.8-1.9-3.8-3.4
	c0-1.2,5.5-1.9,17.3-1.9h17.5l2.2-7.9c5-17.3,8.4-29.8,9.8-37.2c1.2-7.2,2.2-11,3.1-11.3c0.7-0.5,2.2,0,5,0.7c5.5,1,14.2,4.1,20.4,7
	c3.1,1.2,5,2.9,6.2,4.1c1,1.4-0.5,9.1-4.8,23.5l-6.2,21.4l8.2,0.5c5.5,0.7,8.9,0.2,10.1-1c1.2-1.4,4.8-1.7,9.8-0.7
	c5.3,1.2,11.3,1.7,17.8,1.7c13.2,0,14.9,0,20.2-4.6c5.5-4.1,6-4.1,15.1-1.9c11,2.9,14.6,6.5,11,11C222.3,69,216.8,70,207.9,70
	 M137.4,71.9h-8.9l-4.8,13c-4.3,10.1-8.2,19-12,26.2l-7.2,13.2l14.2,7.2l16.1-23.5c3.8-6.5,11.3-28.6,11.3-33.4
	C146,72.6,143.1,71.9,137.4,71.9"/>
<path class="st0" d="M248.9,149.6c3.8,7.5,4.7,15.7,1.8,21.5c-2.9,5.8-6.8,9.7-10.2,9.7c-1.3,0-5.7-2.3-5.7-3.1
	c0-0.4,0.3-0.6,0.7-0.8c0.5-0.2,0.9-0.9,1.4-2c1.1-2.5,1.7-6,2.5-11.2c0.8-5.3-0.3-14.9-1.5-18.2c-0.6-1.4-1.4-2.7-2.3-3.4
	c-1.1-0.7-1.9-0.9-2.2-0.6c-0.3,0.4-0.5,3.3-0.9,8.9c-0.7,11.1-2,15.4-4.7,20.5c-2.7,5-6.3,8-8.9,8.8c-2.6,0.8-8.8-1-11.6-2.3
	c-3-1.4-7-6.8-7.7-8.4c-0.8-1.8-1.4-4.6-1.1-7.3c0.4-2.8,1.4-5.3,3.8-10.3c2.3-5,6.1-9.5,10.3-12.2c2.2-1.4,4.2-2.2,6-2.4
	c1.7-0.3,2.9-0.8,3.3-1.6c1-1.7,2.4-2.5,6-1.6c1.7,0.4,3.2,1.4,4.8,2.5c1.4,1.1,2.3,1.6,2.9,1.6
	C238.3,137.7,246.7,145.2,248.9,149.6 M220.2,171.1c0.5-1.6,1-12.7,0.9-20.3l-0.1-6.6l-2.2,1.4c-5.8,3.4-8.6,9.7-9.2,18.5
	c-0.4,5.8,0.6,10.6,1.9,11.7c1.4,1.3,4.4-0.1,6.8-1.9C219.4,172.8,219.9,171.8,220.2,171.1"/>
<path class="st1" d="M250.8,70.2c0-0.9,0-1.4-0.5-2.3c5.8,0,11.5-0.4,17.3-0.9c-0.4-5.2-0.9-10.6-1.3-16.4c-3.1-0.4-6.3-1.3-9.3-1.7
	v-1.8c3.1,0,6.3-0.5,9.3-0.5c0-3.1,0-5.8-0.5-8.3c-0.4-3.6,1.4-4.5,4.5-3.6c3.1,0.9,5.8,1.8,8.4,3.1c-0.5,2.2-0.5,4-0.5,6.1
	c-0.4,2.3,1.4,3.6,3.6,3.6c1.3,0,2.7-1.8,4-2.7c0.9-0.9,2.2-2.6,3.1-2.6c2.7,0.4,5.8,0.4,7.9,1.7c2.3,1.8-1.7,6.7-5.2,7.2
	c-4,0.4-7.9,0-12.8,0c0.4,4.9,0.9,9.7,1.3,15.5c5.8-2.2,11-4,16.4-5.8c1.8,6.1-1.8,7-5.4,7.9c-3.5,0.5-6.5,0.5-10.1,0.9
	c0,0.9-0.5,1.8-0.5,2.7c0.5,4.9,0.5,9.2,0.9,14.1h6.3c0.4-8.3,6.7-4,11-4.4V41.4c-2.7-0.5-4.9-0.9-7-1.4v-1.3
	c1.8-0.4,3.6-0.9,5.2-0.9c6.3-0.4,12.4,0,19.1,0c0.9,0,2.7,0.5,3.1,0c3.2-5.8,8.4-1.8,12-3.6c1.3,5.4,1.3,5.8-4,7.6V60
	c0,13.3,0,26.1-0.5,39.4c-0.4,6.7-3.1,8.3-11.5,9.2c-0.4-4-0.4-8.3-0.4-12.8c-9.3,1.8-18.2,3.1-27.5,4.9c2.7-6.1,11.1-4,11.5-10.6
	c-5.8,0-11,0.5-16.8,0.9c0,3.1-0.5,6.7,0,10.2c0,1.3,1.3,2.2,2.2,3.1c15.1,10.1,31.9,14.1,49.5,10.1c0.9-0.4,2.3-0.4,3.6-0.4
	c-0.4,0.9-0.4,1.8-0.9,1.8c-14.6,6.1-29.2,11-44.7,2.6c-8.4-4.9-17.7-7.9-27-11.9c-2.2,8.4-7,12.8-16.8,10.2c1.3-4.9,3.1-9.7,4-14.7
	c0.9-4.9,0.9-9.7,1.3-15c0-3.1,1.3-4,4.5-4c6.7,0.4,7.4,1.3,7.4,7.9v3.6c0.5,0.9,0.9,1.8,1.4,2.2c0.4-0.4,1.8-1.3,1.8-2.2V70.2
	H250.8z M312.2,72.4c-1.3,1.3-3.1,2.2-3.1,3.5c-0.4,5.4-0.4,10.6-0.9,16c2.3-0.5,4-0.5,6.3-1.3c-0.5-5.8-0.5-11.5-0.9-17.3
	C313.1,72.8,312.7,72.8,312.2,72.4 M313.1,44c0-1.3-1.7-2.2-2.6-3.1c-0.5,0-0.9,0.5-1.4,0.9c0,4,0.5,7.9,0,12.4c0,3.1,1.4,3.6,4,2.7
	C313.1,52.1,313.6,48.1,313.1,44 M309.1,64.5c0,2.6,0,5.2,4,4.4v-7C309.7,61.8,309.7,61.8,309.1,64.5 M327.7,93.2
	c2.3,0,4.5,0,6.3-0.9c6.7-1.7,6.7-1.7,8.4,4.9c0,0.9,1.7,2.7,2.2,2.3c2.7-0.9,6.1-1.8,7.6-4c0.9-1.8-1.4-4.9-1.8-7.6
	c-0.5-0.5-0.9-1.4-1.4-1.8c-2.2-2.2-2.2-4.5-0.8-7c4.4-8.1,5.2-16.9,5.6-26.1c0-0.9-0.8-2.7-1.7-3.2c-7.6-1.7-15.5-1.3-23,0.5
	c-0.5,0.4-0.5,0.9-0.5,1.3c4.9,0.9,9.3,1.4,14.6,2.3c-0.4,4.9-1.3,10.1-2.2,16.4c-3.5-7.2-5.8-8.1-13.3-5.8
	c1.8,5.2,3.6,10.6,6.3,15.5c2.2,4.9,0,7.4-3.1,9.7c-0.9,0.9-2.3,1.3-3.6,2.2C327.3,92.3,327.7,92.8,327.7,93.2"/>
<path class="st1" d="M442.3,122.3c5.6,0,6,0,7.7-3.5c0.9-1.7,2-2.7,3.2-2.8c2.7-0.5,13.8,1.9,13.7,4.4c0.1,4-7.2,7.2-14,7.2
	c-3.3,0-5.4,0.1-5.8,0.3c-0.4,0.1-0.6,1-0.6,2.6c0,3.1,5.1,14.6,9,17.7c1.8,1.5,4.1,2.3,6.5,2.4c9-0.1,2.6,4.7,0.3,4.9
	c-2.3,0.1-11.5-1-17-3.3c-2.7-1.2-4.6-2.4-5.5-3.7c-1-1.3-1.5-2-2-2c-0.4,0-0.5,4-0.5,11.5c0,7.7-0.1,12.3-0.4,14
	c-0.6,2.9-1.8,4.9-7.8,4.9c-2.9,0-5.5-0.3-7.4-1c-2-0.8-3.1-1.3-3.5-1.7c-0.3-0.5,0-1.2,0.9-1.9c0.6-0.8,1-4.9,0.6-12.3l-0.3-11.3
	l-4.9,3.5c-5.5,3.6-5.8,4.1-11.6,3.6c-5.8-0.4-6.4-1.4-1.4-6c5.2-4.5,7.8-9.3,7.7-14.7c0-5-0.8-5.8-5.4-6.8l-4.2-0.8l-0.8,7
	c-0.4,5.8-0.6,9.3-0.5,10.9c0,5-2.8,7.4-8.3,7.4c-5.5,0-16.1,2.2-18.3,3.8c-2.2,1.8-9.5-0.9-11.5-4.7c-4.1-7.6-5.2-14.2-5.2-30.7
	c0-8.2,0.1-13.6,0.3-15.9c0.1-2.3,0.8-4.4,1.7-6.3l2-4l12.3-0.6c11.8-0.6,20.1,0.5,25.1,3.8c1.4,0.8,2.2,0.9,2.6,0.4
	c0.5-0.6,3.5-1.3,9.1-2.3c5.6-1,8.8-1.8,9.9-2.3c1-0.4,1.4-1.3,1.3-2.6c-0.1-2.8,0.9-10.1,1.4-11.1c0.3-0.5,1.2-0.6,2.7-0.1
	c1.5,0.4,4,0.8,7.2,1.4c6.7,1.2,7.4,3.3,5.2,12c-0.1,0.8,0.3,1.3,1.3,1.4c2,0.3,3.7-0.3,5.2-1.9c1.4-1.5,2.8-2.3,4.1-2.3
	c2.7,0,11.3,2.6,12.4,4.7c0.6,1,0.5,2.3-0.5,3.6c-0.4,0.5-1,0.8-1.7,0.9l-3.6,0.5H435l0.5,9.2c0.3,6.9,0.6,10.8,1.3,11.6
	C437.6,121.9,439.5,122.3,442.3,122.3 M382.7,147.2l0.5-6.1c0.6-6,0-35.5-0.6-38.7c-0.5-1.7-0.9-2.7-1.5-2.8
	c-1.3-0.4-11,0.1-11.6,0.6c-1.7,1.7,0.9,49.2,2.7,49.2L382.7,147.2z M398.4,105.1c0,3.3,0.3,7,0.8,11.4l0.5,6.8h8.8
	c11.9,0.1,11.6,1.5,10.9-11.1l-0.6-9.3l-5.1,0.3c-3.5,0.3-6.9-0.1-10.1-1.2l-5.1-1.5V105.1z"/>
<path class="st0" d="M477.8,200.8c0,0.4-0.6,1.5-2.2,3.2c-1.5,1.6-2.9,3.9-4,6.8c-2,5.5-2.4,5.1-6.2,3.9c-1.8-0.5-2.9-1.4-3.1-2
	c-1.9-3.6-2.5-26.5-1.6-33.4c0.5-3.5,0.9-6,1.7-7.3c1.2-2.7,1.7-2.9,3.1-2.5c2.4,0.8,4.5,1.8,6.3,3.8c1.6,1.6,2.2,2.1,1.9,6.3
	c-0.2,2-0.5,5.6-1.3,10.7s-0.9,7.9-0.3,7.9c0.1,0,0.4,0,1-0.1c0.3-0.1,1.2-0.1,2.7,0.6C477.3,199.5,477.8,200.1,477.8,200.8
	 M508.8,175.5c1.4,0,1.8-0.4,1.8-1.6c0-4.3,3.5-4.8,7-2.7c1.9,1,3.1,1.8,3.3,2.3c0.2,0.6,0.4,1.3,0.4,2.1c0,1.6-0.3,2.2-0.7,2.7
	c-0.3,0.2-1,0.4-2.1,0.6c-1.3,0.4-3.6,0.4-6.6,0.4l-4.8-0.6v10.6c0,1.3,0.5,1.7,2.7,2.6c2.2,1,5.5,2.5,7.3,3.5
	c1.1,0.5,1.4,0.8,1.4,1.2c0,0.5-0.9,1-2.4,1.1c-1.6,0.1-3.3-0.3-5.2-0.8c-1.7-0.7-2.8-1-3.1-1c-0.3,0-0.6,2.2-0.6,6.2
	c0,13.2-3,16.6-10.9,14.1c-4-1.1-7.3-2.9-9.5-5.4c-2.7-2.9-3-3.1-3-7.2c0-3.8,0.1-4.1,3.2-7.2c3.1-3.1,6.1-4.9,9.1-5.7
	c2-0.8,2-0.6,1.4-3.7c-0.3-1.6-0.4-2.8-0.4-3.9v-1.8l-6.1,0.2c-5.5,0.3-8.9,0-10.3-1.2c-0.7-0.6-0.3-1.1,1.4-1.7l3.8-0.5
	c3.2-0.4,5.8-0.9,7.6-1.4l2.7-0.9v-4.6c0.4-5.3,1.8-9.9,4.4-10.6c2.7-0.6,3.3-0.4,5.3,1c0.7,0.6,1.4,1.3,1.5,2
	c0.1,0.7,0.2,2.5,0,5.7l-0.6,6.3H508.8z M497.1,211.2c3.8,0,3-6.8,1.9-10.9l-0.8-2.7l-1.9,2.2c-1.2,1.5-1.8,3.4-1.8,5.5
	C494.5,209.3,495.3,211.2,497.1,211.2"/>
<path class="st0" d="M112.7,224.4c2.5,5-0.6,7.3-7.3,10.1c-3.4,1.5-5.7,2.3-6.9,1.5c-1-0.6-4.6-0.4-10.9,1.1l-9.2,1.7l-2.9,7.8
	c-3.8,11.5-7.3,22.2-9.9,32.1c-2.5,9.7-4.4,15.5-5.2,16c-1.1,1-3.4,0.4-7.4-1.9l-6.1-3.6l1.1-16.6c0.6-10.5,1.3-18.5,2.7-24.6
	c1.1-5.7,1.7-9.4,1.5-10.5c-0.2-2.1-5.2-5.5-6.5-5.9c-1,0-1.1-0.6-1.1-1.5c0-1.1,1.3-1.3,4.6-1.3c2.9,0,4.6-0.4,5.5-0.6
	c0.8-0.2,1.1-1,1.1-1.9c0-2.3,3.2-9.9,6.9-16.4c4-6.3,7.8-11.8,12.8-12.6c4.6-1,5.5-0.6,9,1.7l6.5,5.3c0.2,0-1,3.6-3.4,11.1
	c-2.7,7.3-3.8,10.9-3.1,11.3c1,0.8,2.3,0.6,4.2-1c2.1-1.3,3.8-3.8,5.3-7.1c1.7-3.6,3.2-5.5,4.4-5.5
	C102,213.2,110.2,219.3,112.7,224.4 M130.4,256.3c0.8,0.2,1,0.4,1.1,0.6c5.9,4.8,10.1,12.8,10.1,19.1c0,3.1,2.3,6.9,6.7,10.9
	c8.4,8,5.5,9.7-1,5.9c-6.3-4.2-6.1-3.6-7.4,0.4c-1.5,4-3.8,9.2-6.7,13.2c-2.9,4.4-5.7,8.4-7.8,10.9c-3.1,3.4-6.1,5-9.2,5
	c-6.1,0-17.8-5.3-21.2-9.7c-6.5-8.2-8.8-22.2-3.2-33c5.5-10.5,15.9-15.9,26.7-11.8l5.2,1.9V264c0-3.8-0.4-5.7-1.5-5.7
	c-1,0-1.3-0.8-1.3-2.7C120.9,251.6,123.9,251.8,130.4,256.3 M123.7,283.1c-0.2-3.6-0.6-5.5-0.8-6.3c-0.2-1-1.1-1.3-2.9-1.3
	c-1.7,0-3.4,1.3-5.2,3.4c-3.6,4.2-5.9,14.3-4.6,23.5c0.8,4.8,1.7,6.9,2.5,6.9C116.7,309.3,123.9,289.8,123.7,283.1 M146.3,216.2
	c3.1,0,13.8,8,16.8,13c10.7,17.2-13.8,18.9-24.5,6.9c-5.2-6.1-5.2-11.8,0.6-16.2C142.5,217.4,144.7,216.2,146.3,216.2"/>
<path class="st0" d="M227.4,320.2c-3.6,0-9.3-0.1-13.6-4.8c-3.2-3.6-4.2-6.4-5.5-12.8c-1.5-6.3-1.8-8.5-8.1-8.1
	c-6.4,0.5-8.6,3.2-13.5,10.6c-2.5,3.7-3,9.2-11.3,16.2c-2-1.7-8.6-3.4-10.3-5.5c2.2-4.9,6-11.9,11.1-20.4c5.2-8.6,8.1-14,9.2-16.1
	c1.1-2.2,3.3-5.7,6.6-10.3c3.3-4.8,6-8.7,7.7-11.9c1.7-3.2,3.2-5.4,4.4-6.9c1.2-1.4,2.1-2.2,2.1-2.6c0.1-0.5,0.6-0.5,1-0.5
	c0.9,0,0.9,0.1,2,1.4c0.5,0.7,1.1,1.2,2,1.7c8.5,6.8,8.4,9.7-0.4,23.5c-4.4,6.9-6.9,10.9-7.5,12.2c-0.7,1.2-0.6,2.2,0,2.8
	c2.2,1,9.2,8.1,10.6,10.3c0.7,1.2,1.5,3.2,2.2,6.5c0.7,3.1,1.2,5,1.8,5.9c1.1,1.8,4.7,2.9,6,1.4c0.5-0.6,2-3.3,4.4-7.9
	c4.8-9.1,21.1-18.8,23.1-1.6C251.8,307.3,234.8,320.2,227.4,320.2"/>
<path class="st0" d="M310.9,214.2l8.4-0.6c6.5-1,9.4,0.2,17.4,4c18.7,9.4,16.2,24.6-6.1,36.7c-8.4,4.6-11.8,4.4-15.9,1.7
	c-4.2-2.7-4-2.9,1-7.3c4.4-4.6,8.8-17.8,7.1-22.2c-1.5-4.6-1.7-4.6-7.6-3.8c-5.7,1-5.9,1-5.9,6.5c0,2.9-0.2,4.6-0.4,5
	c-0.2,0.8-1,0.8-2.3,0.4c-1.3-0.6-2.3-0.6-3.1-0.6c-1,0-2.1-0.6-3.1-1.9c-1.1-1.7-2.7-2.3-3.6-2.1c-2.7,0.4-19.1,6.9-19.1,7.6
	c-1,0.6,18.1,53.7,22.3,63c2.1,5.2,3.4,7.8,3.4,8.6c0,1.1-0.8,2.1-2.1,3.6c-3.1,2.7-10.7,1.9-14.3-4c-1.9-2.7-6.5-13-13.8-30.9
	c-7.3-18-11.7-27.7-13.2-29.2c-0.6-0.6-2.7,1.7-7.1,6.1c-4.2,4.4-7.3,7.1-8.2,7.5c-2.1,1.3-8.8-2.1-8.8-3.2c0-0.6,0.8-2.3,2.7-4.4
	c3.6-5,8.8-10.5,12.2-13.4l4.4-3.6l-6.1-13.2c-4.2-8.6-6.3-14.5-6.5-17c-0.4-5.2-0.4-5.3,4-4.8c11.7,1.3,17.2,3.4,17.2,6.7
	c0,1.5,1.9,6.5,4.4,10.9c2.3,4.2,4.8,7.6,7.1,7.6c2.3,0,18-7.6,18-9.4c-0.2-1-1.3-5.3-3.6-13.6c-4.2-16.4-4.2-13.9,5.9-13.6
	c4.8,0.2,8.4,0.8,10.7,1.7c2.3,1,3.6,1.7,4.2,2.7c0.2,1,0.4,3.6,0.4,8.4V214.2z"/>
<path class="st0" d="M392.5,272.2c10.1-1.3,17.3-4.6,19.4-7.9c1-1.8,2.4-6.6,4.6-14.5c5.5-19.5,6.9-31.8,4.3-36.8
	c-2.7-7.2-22.9-7.4-27.5-4.1c-1.9,0.9-3.1,1.7-3.5,1.9c-0.4,0.2-0.3,0.8-0.1,1.2c0.2,0.4,1,1.6,2.5,3.4c5.1,4,1.4,15.8-5.4,18.3
	c-6.8,2.5-23.7-13.6-18.3-19.1c1.2-1.7,1.3-3.6,0.3-5.2c-1-1.6-1.4-3-1.1-3.8c0.3-0.8,1.4-2,3.6-4c13.3-10.1,28.8-11.6,47.1-4.4
	c15.2,5.2,29.9,19.9,31.9,33.1c1,6.6-0.2,15.2-3.2,26l-4,14.4c-16.6,8.9-29.2,13.4-37.6,14.4c-11.3,1.2-15.6,5.2-20.5,18.7
	c-5.1,11.5-4.8,11.6-12.7,5c-3.5-5-4.5-5.7-1.3-14.5C375.8,281.1,383,273.4,392.5,272.2 M351.1,331.3c2.9-8,6.1-9.9,14.9-5.8
	c8.5,4,14.7,10,15,13.6c0.3,3.5-2.2,15.4-7.3,18.5c-5.9,2.5-12.4-2.6-18.9-9.7C348.2,340.9,348.2,339.3,351.1,331.3"/>
</svg>
